# xmcd
#
# Track frame offsets:
#	150
#	36377
#	65827
#	116389
#	133285
#	229308
#	247307
#	287088
#	326757
#
# Disc length: 4548 seconds
#
# Revision: 0
# Processed by: cddbd v1.5.2PL0 Copyright (c) Steve Scherf et al.
# Submitted via: audiograbber 1.83.01
#
DISCID=9511c209
DTITLE=Grateful Dead - 94-03-16 Rosemont Horizon, Rosemont IL
DYEAR=1900
DGENRE=
TTITLE0=Looks Like Rain
TTITLE1=Way To Go Home
TTITLE2=Dark Star
TTITLE3=Drums
TTITLE4=Space
TTITLE5=I Need A Miracle
TTITLE6=Standing On The Moon
TTITLE7=Sugar Magnolia
TTITLE8=I Fought The Law
EXTD=
EXTT0=
EXTT1=
EXTT2=
EXTT3=
EXTT4=
EXTT5=
EXTT6=
EXTT7=
EXTT8=
PLAYORDER=
